<svg width="40" height="41" viewBox="0 0 40 41" fill="none" xmlns="http://www.w3.org/2000/svg">
<path d="M12.6667 39.0783C14.5059 39.3011 16.8398 39.3011 20 39.3011C23.1602 39.3011 25.4941 39.3011 27.3333 39.0783M12.6667 39.0783C10.9887 38.875 9.72244 38.4863 8.61617 37.7429C8.43015 37.6179 8.24878 37.4862 8.07243 37.3479C5.87399 35.624 4.94025 32.7503 3.07275 27.0027C1.20526 21.2551 0.27151 18.3814 1.03683 15.6945C1.09822 15.479 1.1675 15.2658 1.24452 15.0553C2.20464 12.4318 4.64923 10.6557 9.53839 7.10351C14.4276 3.55133 16.8721 1.77524 19.664 1.67282C19.8879 1.6646 20.1121 1.6646 20.3361 1.67282C23.1279 1.77524 25.5725 3.55133 30.4616 7.10351C35.3508 10.6557 37.7954 12.4318 38.7555 15.0553C38.8325 15.2658 38.9018 15.479 38.9632 15.6945C39.7285 18.3814 38.7948 21.2551 36.9273 27.0027C35.0598 32.7503 34.126 35.624 31.9276 37.3479C31.7512 37.4862 31.5699 37.6179 31.3839 37.7429C30.2776 38.4863 29.0113 38.875 27.3333 39.0783M12.6667 39.0783V38.9194V32.5027C12.6667 28.4526 15.9499 25.1694 20 25.1694C24.0501 25.1694 27.3333 28.4526 27.3333 32.5027V38.9194V39.0783" stroke="white" stroke-width="1.5"/>
</svg>
