<svg width="45" height="42" viewBox="0 0 45 42" fill="none" xmlns="http://www.w3.org/2000/svg">
<path d="M10.0155 24.4595L11.3239 23.9327L11.3239 23.9327L10.0155 24.4595ZM17.173 30.5234L16.6093 31.8164L17.173 30.5234ZM12.0332 27.5404L13.039 26.5515L13.039 26.5515L12.0332 27.5404ZM34.9843 24.4595L33.6758 23.9327L34.9843 24.4595ZM27.8268 30.5234L28.3905 31.8164L27.8268 30.5234ZM32.9665 27.5404L33.9723 28.5293L33.9723 28.5293L32.9665 27.5404ZM35.2044 8.49758L33.8629 8.93346L35.2044 8.49758ZM29.167 2.46023L28.7312 3.80171L29.167 2.46023ZM9.79536 8.49758L11.1368 8.93346L9.79536 8.49758ZM15.8327 2.46023L16.2686 3.80171L15.8327 2.46023ZM4.31848 20.0681L3.46167 21.1886L3.48169 21.2039L3.50226 21.2185L4.31848 20.0681ZM40.6815 20.0681L41.4977 21.2185L41.5183 21.2039L41.5383 21.1886L40.6815 20.0681ZM21.0894 39.6136C21.0894 40.3926 21.7209 41.0241 22.4999 41.0241C23.2789 41.0241 23.9104 40.3926 23.9104 39.6136H21.0894ZM30.0226 41.0241C30.8016 41.0241 31.4331 40.3926 31.4331 39.6136C31.4331 38.8346 30.8016 38.2031 30.0226 38.2031V41.0241ZM14.9772 38.2031C14.1982 38.2031 13.5666 38.8346 13.5666 39.6136C13.5666 40.3926 14.1982 41.0241 14.9772 41.0241V38.2031ZM35.4508 9.52271L34.0599 9.75704L35.4508 9.52271ZM8.93738 23.3454L9.7536 22.195L8.93738 23.3454ZM34.2541 15.1647V17.6104H37.0751V15.1647H34.2541ZM10.7456 17.6104V15.1647H7.92461V17.6104H10.7456ZM27.263 29.2305C26.2734 29.6619 25.3208 30.0318 24.4751 30.2917C23.6087 30.558 22.9438 30.6803 22.4999 30.6803V33.5014C23.3616 33.5014 24.3421 33.2838 25.3038 32.9883C26.2861 32.6864 27.3442 32.2726 28.3905 31.8164L27.263 29.2305ZM22.4999 30.6803C22.056 30.6803 21.391 30.558 20.5246 30.2917C19.6789 30.0318 18.7263 29.6619 17.7367 29.2305L16.6093 31.8164C17.6556 32.2726 18.7136 32.6864 19.696 32.9883C20.6576 33.2838 21.6382 33.5014 22.4999 33.5014V30.6803ZM17.7367 29.2305C15.1104 28.0855 14.0912 27.6216 13.039 26.5515L11.0274 28.5293C12.5297 30.0572 14.0855 30.7161 16.6093 31.8164L17.7367 29.2305ZM8.70703 24.9863C9.18751 26.1798 10.1254 27.6118 11.0274 28.5293L13.039 26.5515C12.3977 25.8992 11.6655 24.7813 11.3239 23.9327L8.70703 24.9863ZM28.3905 31.8164C30.9142 30.7161 32.4701 30.0572 33.9723 28.5293L31.9607 26.5515C30.9086 27.6216 29.8893 28.0855 27.263 29.2305L28.3905 31.8164ZM33.6758 23.9327C33.3342 24.7813 32.602 25.8992 31.9607 26.5515L33.9723 28.5293C34.8743 27.6118 35.8122 26.1798 36.2927 24.9863L33.6758 23.9327ZM22.4999 3.41051C26.1101 3.41051 27.5807 3.42791 28.7312 3.80171L29.6029 1.11876C27.9204 0.572089 25.8906 0.589491 22.4999 0.589491V3.41051ZM36.5459 8.06171C35.4762 4.76955 32.8951 2.18845 29.6029 1.11876L28.7312 3.80171C31.1645 4.59235 33.0723 6.50012 33.8629 8.93346L36.5459 8.06171ZM22.4999 0.589491C19.1092 0.589491 17.0793 0.572089 15.3968 1.11876L16.2686 3.80171C17.419 3.42791 18.8896 3.41051 22.4999 3.41051V0.589491ZM11.1368 8.93346C11.9275 6.50012 13.8352 4.59235 16.2686 3.80171L15.3968 1.11876C12.1047 2.18845 9.52357 4.76955 8.45388 8.06171L11.1368 8.93346ZM9.7536 22.195L5.1347 18.9178L3.50226 21.2185L8.12116 24.4958L9.7536 22.195ZM5.17529 18.9477C1.78241 16.3531 3.61722 10.9332 7.88845 10.9332V8.1122C0.919515 8.1122 -2.07415 16.9553 3.46167 21.1886L5.17529 18.9477ZM7.88845 10.9332H9.33538V8.1122H7.88845V10.9332ZM36.8894 24.4883L41.4977 21.2185L39.8653 18.9178L35.257 22.1876L36.8894 24.4883ZM41.5383 21.1886C47.0742 16.9553 44.0805 8.1122 37.1116 8.1122V10.9332C41.3828 10.9332 43.2176 16.3531 39.8247 18.9477L41.5383 21.1886ZM37.1116 8.1122H35.6646V10.9332H37.1116V8.1122ZM21.0894 32.0909V39.6136H23.9104V32.0909H21.0894ZM30.0226 38.2031H14.9772V41.0241H30.0226V38.2031ZM10.7456 15.1647C10.7456 12.3967 10.7506 10.8809 10.9399 9.75704L8.15808 9.28839C7.91969 10.7034 7.92461 12.5102 7.92461 15.1647H10.7456ZM10.9399 9.75704C10.9922 9.44626 11.0573 9.17827 11.1368 8.93346L8.45388 8.06171C8.32591 8.45557 8.23022 8.86018 8.15808 9.28839L10.9399 9.75704ZM9.33538 10.9332H9.54898V8.1122H9.33538V10.9332ZM7.92461 17.6104C7.92461 20.5313 7.91088 22.4668 8.43701 24.2168L11.1386 23.4047C10.7594 22.1433 10.7456 20.6948 10.7456 17.6104H7.92461ZM8.43701 24.2168C8.51518 24.4769 8.60475 24.7322 8.70703 24.9863L11.3239 23.9327C11.2534 23.7576 11.1921 23.5827 11.1386 23.4047L8.43701 24.2168ZM34.2541 17.6104C34.2541 20.708 34.2401 22.1559 33.8565 23.4202L36.5559 24.2394C37.0891 22.4825 37.0751 20.5434 37.0751 17.6104H34.2541ZM33.8565 23.4202C33.8041 23.5928 33.7443 23.7626 33.6758 23.9327L36.2927 24.9863C36.392 24.7396 36.4794 24.4917 36.5559 24.2394L33.8565 23.4202ZM37.0751 15.1647C37.0751 12.5102 37.0801 10.7034 36.8417 9.28839L34.0599 9.75704C34.2492 10.8809 34.2541 12.3967 34.2541 15.1647H37.0751ZM36.8417 9.28839C36.7695 8.86018 36.6738 8.45557 36.5459 8.06171L33.8629 8.93346C33.9425 9.17827 34.0075 9.44626 34.0599 9.75704L36.8417 9.28839ZM35.6646 8.1122H35.4508V10.9332H35.6646V8.1122ZM35.257 22.1876C35.0628 22.3253 34.8553 22.443 34.6375 22.539L35.7749 25.1206C36.1668 24.9479 36.5402 24.7361 36.8894 24.4883L35.257 22.1876ZM8.12116 24.4958C8.47496 24.7468 8.85682 24.9558 9.25901 25.1184L10.3166 22.5031C10.1176 22.4226 9.92866 22.3193 9.7536 22.195L8.12116 24.4958Z" fill="white"/>
</svg>
